<svg width="22" height="22" viewBox="0 0 22 22" fill="none" xmlns="http://www.w3.org/2000/svg">
<g clip-path="url(#clip0_129_3998)">
<path d="M1.15625 5.98035H11.8414C12.1361 7.1712 13.2133 8.05685 14.494 8.05685C15.7746 8.05685 16.8518 7.1712 17.1466 5.98035H20.8438C21.2062 5.98035 21.5 5.68651 21.5 5.3241C21.5 4.96168 21.2062 4.66785 20.8438 4.66785H17.1465C16.8518 3.477 15.7746 2.59131 14.4939 2.59131C13.2132 2.59131 12.136 3.477 11.8413 4.66785H1.15625C0.793836 4.66785 0.5 4.96168 0.5 5.3241C0.5 5.68651 0.793836 5.98035 1.15625 5.98035ZM14.494 3.90381C15.2771 3.90381 15.9142 4.54095 15.9142 5.32406C15.9142 6.10721 15.2771 6.74435 14.494 6.74435C13.7108 6.74435 13.0737 6.10721 13.0737 5.32406C13.0737 4.54095 13.7108 3.90381 14.494 3.90381ZM1.15625 11.6564H4.85348C5.14822 12.8473 6.22541 13.7329 7.50608 13.7329C8.78676 13.7329 9.86395 12.8473 10.1587 11.6564H20.8438C21.2062 11.6564 21.5 11.3626 21.5 11.0002C21.5 10.6378 21.2062 10.3439 20.8438 10.3439H10.1586C9.86391 9.15307 8.78671 8.26738 7.50604 8.26738C6.22537 8.26738 5.14818 9.15307 4.85344 10.3439H1.15625C0.793836 10.3439 0.5 10.6378 0.5 11.0002C0.5 11.3626 0.793795 11.6564 1.15625 11.6564ZM7.50604 9.57988C8.2892 9.57988 8.92633 10.217 8.92633 11.0002C8.92633 11.7833 8.2892 12.4204 7.50604 12.4204C6.72289 12.4204 6.08575 11.7833 6.08575 11.0002C6.08575 10.217 6.72289 9.57988 7.50604 9.57988ZM20.8438 16.02H17.1465C16.8518 14.8291 15.7746 13.9434 14.4939 13.9434C13.2132 13.9434 12.1361 14.8291 11.8413 16.02H1.15625C0.793836 16.02 0.5 16.3138 0.5 16.6762C0.5 17.0387 0.793836 17.3325 1.15625 17.3325H11.8414C12.1361 18.5233 13.2133 19.409 14.494 19.409C15.7746 19.409 16.8518 18.5233 17.1466 17.3325H20.8438C21.2062 17.3325 21.5 17.0387 21.5 16.6762C21.5 16.3138 21.2062 16.02 20.8438 16.02ZM14.494 18.0965C13.7108 18.0965 13.0737 17.4594 13.0737 16.6762C13.0737 15.8931 13.7108 15.2559 14.494 15.2559C15.2771 15.2559 15.9142 15.8931 15.9142 16.6762C15.9142 17.4594 15.2771 18.0965 14.494 18.0965Z" fill="#090D00"/>
</g>
<defs>
<clipPath id="clip0_129_3998">
<rect width="21" height="21" fill="white" transform="translate(0.5 0.5)"/>
</clipPath>
</defs>
</svg>
