<svg width="23" height="22" viewBox="0 0 23 22" fill="none" xmlns="http://www.w3.org/2000/svg">
<g clip-path="url(#clip0_40_1282)">
<path d="M11.7508 15.0461C9.52552 15.0461 7.70483 13.2254 7.70483 11.0001C7.70483 8.77479 9.52552 6.9541 11.7508 6.9541C13.9761 6.9541 15.7968 8.77479 15.7968 11.0001C15.7968 13.2254 13.9761 15.0461 11.7508 15.0461ZM11.7508 8.1101C10.1613 8.1101 8.86083 9.41059 8.86083 11.0001C8.86083 12.5896 10.1613 13.8901 11.7508 13.8901C13.3403 13.8901 14.6408 12.5896 14.6408 11.0001C14.6408 9.41059 13.3403 8.1101 11.7508 8.1101Z" fill="white"/>
<path d="M22.1536 8.11002C21.8357 8.11002 21.5756 7.84992 21.5756 7.53202V1.75206C21.5756 1.43416 21.3155 1.17406 20.9976 1.17406H15.2176C14.8997 1.17406 14.6396 0.913961 14.6396 0.596063C14.6396 0.278165 14.8997 0.0180664 15.2176 0.0180664H20.9976C21.9513 0.0180664 22.7316 0.798362 22.7316 1.75206V7.53202C22.7316 7.84992 22.4715 8.11002 22.1536 8.11002Z" fill="white"/>
<path d="M20.9976 21.982H15.2176C14.8997 21.982 14.6396 21.7219 14.6396 21.404C14.6396 21.0861 14.8997 20.826 15.2176 20.826H20.9976C21.3155 20.826 21.5756 20.5659 21.5756 20.248V14.468C21.5756 14.1501 21.8357 13.89 22.1536 13.89C22.4715 13.89 22.7316 14.1501 22.7316 14.468V20.248C22.7316 21.2017 21.9513 21.982 20.9976 21.982Z" fill="white"/>
<path d="M1.34643 8.11002C1.02853 8.11002 0.768433 7.84992 0.768433 7.53202V1.75206C0.768433 0.798362 1.54873 0.0180664 2.50242 0.0180664H8.28239C8.60029 0.0180664 8.86039 0.278165 8.86039 0.596063C8.86039 0.913961 8.60029 1.17406 8.28239 1.17406H2.50242C2.18452 1.17406 1.92443 1.43416 1.92443 1.75206V7.53202C1.92443 7.84992 1.66433 8.11002 1.34643 8.11002Z" fill="white"/>
<path d="M8.28239 21.982H2.50242C1.54873 21.982 0.768433 21.2017 0.768433 20.248V14.468C0.768433 14.1501 1.02853 13.89 1.34643 13.89C1.66433 13.89 1.92443 14.1501 1.92443 14.468V20.248C1.92443 20.5659 2.18452 20.826 2.50242 20.826H8.28239C8.60029 20.826 8.86039 21.0861 8.86039 21.404C8.86039 21.7219 8.60029 21.982 8.28239 21.982Z" fill="white"/>
</g>
<defs>
<clipPath id="clip0_40_1282">
<rect width="22" height="22" fill="white" transform="translate(0.75)"/>
</clipPath>
</defs>
</svg>
