<svg width="73" height="73" viewBox="0 0 73 73" fill="none" xmlns="http://www.w3.org/2000/svg">
<path d="M56.5157 72.456H15.9404C7.13673 72.456 6.10352e-05 65.3193 6.10352e-05 56.5157V15.9403C6.10352e-05 7.13667 7.13673 0 15.9404 0H56.5157C65.3194 0 72.456 7.13667 72.456 15.9403V56.5157C72.456 65.3193 65.3194 72.456 56.5157 72.456Z" fill="#1E3A5F"/>
<path d="M34.6933 25.2039L30.9744 30.4154H23.3235L34.6933 14.4825V25.2039ZM46.5104 43.927H22.8765V32.319H46.5104V43.927ZM12.1363 46.0924L20.8818 33.837V44.5583L12.1363 56.8137V46.0924ZM36.6878 13.0088H60.3217V24.6167H36.6878V13.0088ZM62.3162 26.5206V11.1049H35.1037C34.8462 11.1049 34.6044 11.2293 34.4547 11.4389L20.8909 30.4154H20.8818V30.4279L10.2906 45.2454C10.194 45.3809 10.1418 45.543 10.1418 45.7094V60.5505C10.1418 61.327 11.1381 61.6458 11.589 61.014L22.4241 45.8309H48.1059C48.3262 45.8309 48.5046 45.6521 48.5046 45.4319V30.8141C48.5046 30.5939 48.3262 30.4154 48.1059 30.4154H33.4246L36.204 26.5206H62.3162Z" fill="white"/>
</svg>
